HIERARCHY
ROOT pelvis
{
	OFFSET 0.000000 0.000000 0.000000
	CHANNELS 6 Xposition Yposition Zposition Zrotation Xrotation Yrotation
	JOINT lfemur
	{
		OFFSET 11.446000 0.000000 0.000000
		CHANNELS 3 Zrotation Xrotation Yrotation
		JOINT ltibia
		{
			OFFSET 0.000000 -42.030400 0.000000
			CHANNELS 3 Zrotation Xrotation Yrotation
			JOINT lfoot
			{
				OFFSET 0.000000 -39.930200 0.000000
				CHANNELS 3 Zrotation Xrotation Yrotation
				JOINT ltoes
				{
					OFFSET 0.000000 0.000000 11.775800
					CHANNELS 3 Zrotation Xrotation Yrotation
					End Site
					{
					    OFFSET 0.000000 0.000000 5.000000
					}
				}
			}
		}
	}
	JOINT rfemur
	{
		OFFSET -11.446000 0.000000 0.000000
		CHANNELS 3 Zrotation Xrotation Yrotation
		JOINT rtibia
		{
			OFFSET 0.000000 -42.030400 0.000000
			CHANNELS 3 Zrotation Xrotation Yrotation
			JOINT rfoot
			{
				OFFSET 0.000000 -39.930200 0.000000
				CHANNELS 3 Zrotation Xrotation Yrotation
				JOINT rtoes
				{
					OFFSET 0.000000 0.000000 11.775800
					CHANNELS 3 Zrotation Xrotation Yrotation
					End Site
					{
					    OFFSET 0.000000 0.000000 5.000000
					}
				}
			}
		}
	}
	JOINT thorax
	{
		OFFSET 0.000000 11.255600 -5.000000
		CHANNELS 3 Zrotation Xrotation Yrotation
		JOINT head
		{
			OFFSET 0.000000 43.799300 0.000000
			CHANNELS 3 Zrotation Xrotation Yrotation
			End Site
			{
			    OFFSET 0.000000 5.000000 0.000000
			}
		}
		JOINT lclavicle
		{
			OFFSET 0.000000 39.863000 0.000000
			CHANNELS 3 Zrotation Xrotation Yrotation
			JOINT lhumerus
			{
				OFFSET 17.380600 4.958300 0.000000
				CHANNELS 3 Zrotation Xrotation Yrotation
				JOINT lradius
				{
					OFFSET 0.000000 -27.561300 0.000000
					CHANNELS 3 Zrotation Xrotation Yrotation
					JOINT lhand
					{
						OFFSET 0.000000 -26.933000 0.000000
						CHANNELS 3 Zrotation Xrotation Yrotation
						End Site
						{
						    OFFSET 0.000000 -5.000000 0.000000
						}
					}
				}
			}
		}
		JOINT rclavicle
		{
			OFFSET 0.000000 39.863000 0.000000
			CHANNELS 3 Zrotation Xrotation Yrotation
			JOINT rhumerus
			{
				OFFSET -17.380600 4.958300 0.000000
				CHANNELS 3 Zrotation Xrotation Yrotation
				JOINT rradius
				{
					OFFSET 0.000000 -27.561300 0.000000
					CHANNELS 3 Zrotation Xrotation Yrotation
					JOINT rhand
					{
						OFFSET 0.000000 -26.933000 0.000000
						CHANNELS 3 Zrotation Xrotation Yrotation
						End Site
						{
						    OFFSET 0.000000 -5.000000 0.000000
						}
					}
				}
			}
		}
	}
}
MOTION
Frames: 8
Frame Time:	0.0333333
79.610600 26.382000 30.603800 -140.921010 -0.295837 -107.890883 44.707338 -88.980189 63.472301 -180.000037 49.344324 -180.000037 0.000000 25.210265 -9.204659 -0.000000 -1.630683 -0.000000 -70.676044 -78.448326 -69.911965 180.000037 41.342633 -180.000037 -0.000000 19.845322 7.715441 0.000000 -29.577348 0.000000 -5.876633 30.215871 10.334145 -16.519362 62.344357 32.418491 -18.838864 0.000000 0.309380 57.170729 51.448060 -34.193607 0.000002 -83.388939 -61.529583 20.951196 -4.430738 0.000000 38.271598 0.000001 -15.680277 -54.188830 24.933699 12.733397 0.000003 -48.376130 40.876701 -15.961165 1.941711 0.000000 
76.993900 22.709000 31.498700 -131.264802 -3.512062 -107.383092 12.815326 -85.492299 30.740194 180.000037 49.391699 180.000037 -0.000000 25.132306 -9.069404 0.000000 -1.617945 -0.000000 -55.713457 -76.529558 -55.104348 180.000037 41.933977 -180.000037 0.000000 22.301852 5.692329 -0.000000 -29.577358 0.000000 -6.303514 29.635587 7.515473 -23.849759 64.541395 38.853023 -20.091585 -0.000000 1.512464 55.682290 49.240186 -35.645857 -0.000016 -81.013561 -57.769435 16.261638 -5.151023 -0.000000 35.428850 -0.000001 -10.010836 -47.019662 24.107627 17.231453 -0.000001 -41.271161 43.479050 -9.351388 -0.286510 0.000000 
73.898500 19.910800 32.408600 -127.987157 -4.787519 -107.138899 6.078015 -76.856931 24.069716 -180.000037 47.599634 -180.000037 -0.000000 24.848913 -7.217675 -0.000000 -1.606672 -0.000000 -37.046213 -69.689108 -35.568544 -180.000037 40.211472 -180.000037 0.000000 19.824332 3.118974 0.000000 -29.572680 0.000000 -7.586198 33.906316 5.115293 -32.548491 66.299253 46.231696 -21.239107 0.000000 3.838714 55.930719 48.358727 -37.756513 0.000004 -80.212219 -58.157036 17.635150 -4.565113 -0.000000 33.948879 0.000000 -4.133559 -44.107771 25.738224 19.479501 -0.000001 -41.480381 44.582131 -6.468045 -1.262247 0.000000 
72.422300 15.843100 33.372900 -110.618255 -11.705392 -104.444663 3.159402 -81.040354 22.674204 -180.000037 50.202633 -180.000037 -0.000000 23.969231 -7.086537 -0.000000 -1.586345 -0.000000 -53.344402 -71.958490 -51.715371 -180.000037 42.542752 180.000037 -0.000000 18.255419 1.278363 -0.000000 -29.557667 0.000000 -6.389379 33.967572 -0.010211 -16.906284 67.585615 26.552203 -19.535629 -0.000000 -2.447255 40.628938 45.028047 -24.954321 0.000012 -81.172687 -56.810591 17.977959 -4.815441 0.000000 23.816949 -0.000000 8.849945 -32.063462 21.313866 9.139845 0.000001 -45.021366 44.041196 -4.006663 -2.084940 0.000000 
69.724800 12.195500 33.870200 -102.018452 -13.678795 -102.674365 4.890539 -79.024628 24.156271 180.000037 50.225597 -180.000037 0.000000 23.654338 -6.294847 0.000000 -1.571469 -0.000000 -50.823519 -69.872009 -50.316226 -180.000037 43.885745 -180.000037 0.000000 18.878045 0.070806 -0.000000 -29.558913 -0.000000 -7.757679 33.769101 0.468181 -11.528743 66.307420 21.457577 -20.268021 0.000000 -2.166630 42.446070 46.740622 -25.323738 0.000024 -80.557949 -57.539022 22.284645 -4.886250 0.000000 22.778424 -0.000000 9.414761 -30.187666 21.616422 8.238044 0.000003 -50.588909 41.561877 -2.525326 -2.574644 -0.000000 
68.143800 10.471500 34.536600 -85.292864 -17.132913 -97.095704 7.411920 -84.231567 29.365855 180.000037 48.892261 180.000037 0.000000 25.756746 -1.786912 -0.000000 -1.551280 -0.000000 -68.193155 -69.628486 -68.810614 -180.000037 43.364561 180.000037 0.000000 17.731625 -3.241008 -0.000000 -29.554201 -0.000000 -7.156714 30.461075 -1.403425 -0.937057 62.489277 10.429661 -19.854879 0.000000 -1.654449 39.442452 43.086451 -19.923955 0.000011 -79.566141 -53.399996 21.451095 -5.479838 0.000000 19.751121 0.000000 10.068158 -27.672182 20.506636 5.547100 -0.000002 -58.236946 39.379245 -3.698826 -2.172319 -0.000000 
65.583400 11.269100 35.400900 -77.118074 -18.746922 -94.973844 22.958966 -82.209143 47.865006 -180.000037 45.531876 -180.000037 -0.000000 32.283031 -1.726185 -0.000000 -1.577709 0.000000 -65.776596 -68.115188 -63.892486 -180.000037 40.808990 -180.000037 -0.000000 18.454658 -2.788027 -0.000000 -29.546445 -0.000000 -7.543995 28.951608 -0.049944 -1.149231 64.109461 7.581947 -21.830306 0.000000 -1.421284 37.678175 46.526136 -14.606970 0.000002 -80.842783 -59.192331 36.821014 -3.442391 -0.000000 22.012316 0.000000 8.673800 -29.517371 29.929630 4.391497 0.000003 -66.732358 39.903858 -9.286086 -0.295542 -0.000000 
61.743100 10.636000 37.046900 -76.890124 -19.722511 -92.955411 8.584666 -79.141009 34.763507 -180.000037 44.113887 -180.000037 -0.000000 33.624683 -1.899110 0.000000 -1.585146 -0.000000 -61.841732 -65.334070 -56.724969 -180.000037 38.170433 -180.000037 -0.000000 15.280004 -2.953575 0.000000 -29.527874 -0.000000 -6.683780 36.669484 -3.926334 -9.353583 62.416122 13.662866 -22.261723 0.000000 0.787478 39.723679 46.489163 -19.845037 0.000003 -78.103649 -64.984446 42.607351 -3.342604 -0.000000 24.399712 -0.000000 7.349478 -32.880824 36.598074 7.842059 0.000007 -75.177505 50.367263 -22.289996 4.087166 -0.000000 
